<?xml version="1.0" encoding="utf-8" standalone="yes"?>
<!DOCTYPE svg PUBLIC "-//W3C//DTD SVG 1.1//EN" "http://www.w3.org/Graphics/SVG/1.1/DTD/svg11.dtd">
<svg style="fill:none;stroke:none;fill-rule:evenodd;clip-rule:evenodd;stroke-linecap:round;stroke-linejoin:round;stroke-miterlimit:1.5;" version="1.1" xmlns="http://www.w3.org/2000/svg" xmlns:xlink="http://www.w3.org/1999/xlink" width="720" height="554" viewBox="0 0 720 554"><style class="text-font-style fontImports" data-font-family="Roboto">@import url(https://fonts.googleapis.com/css2?family=Roboto:wght@400;700&amp;amp;display=block);</style><g id="items" style="isolation: isolate"><g id="blend" style="mix-blend-mode: normal"><g id="g-root-cp_7_g-7_mbqdgsse0f7k-fill" data-item-order="-307688" transform="translate(256.875, 216.6309814453125)"></g><g id="g-root-cp_7_g-7_mbqdgsse0f7k-stroke" data-item-order="-307688" transform="translate(256.875, 216.6309814453125)"><g id="cp_7_g-7_mbqdgsse0f7k-stroke" fill="none" stroke-linecap="round" stroke-linejoin="round" stroke-miterlimit="4" stroke="#ba5de5" stroke-width="2" stroke-opacity="1"><g><path d="M 16.5551 64.4057L 10 61.9501L 11.2278 58.6726C 17.6984 41.3993 28.8292 26.4098 43.0863 15.2303L 40.3912 11.3525L 56.5003 10L 49.617 24.6272L 47.0883 20.9887C 33.9789 31.3605 23.7475 45.2058 17.7829 61.1281L 16.5551 64.4057Z"></path></g></g></g><g id="g-root-cp_6_g-6_dg3d7wse0g09-fill" data-item-order="-307684" transform="translate(247.10498046875, 285.2069091796875)"></g><g id="g-root-cp_6_g-6_dg3d7wse0g09-stroke" data-item-order="-307684" transform="translate(247.10498046875, 285.2069091796875)"><g id="cp_6_g-6_dg3d7wse0g09-stroke" fill="none" stroke-linecap="round" stroke-linejoin="round" stroke-miterlimit="4" stroke="#de58a9" stroke-width="2" stroke-opacity="1"><g><path d="M 30.1898 78.4463L 28.4133 75.4306C 19.6995 60.6392 14.702 43.3961 14.702 24.9966C 14.702 24.5746 14.7046 24.1533 14.7098 23.7325L 10 23.4044L 19.0363 10L 26.1267 24.5279L 21.7052 24.2198C 21.703 24.4785 21.702 24.7374 21.702 24.9966C 21.702 42.1128 26.3476 58.1333 34.4445 71.8776L 36.2211 74.8932L 30.1898 78.4463Z"></path></g></g></g><g id="g-root-cp_5_g-5_dg3d7wse0g0a-fill" data-item-order="-307680" transform="translate(280.0889892578125, 365.0657958984375)"></g><g id="g-root-cp_5_g-5_dg3d7wse0g0a-stroke" data-item-order="-307680" transform="translate(280.0889892578125, 365.0657958984375)"><g id="cp_5_g-5_dg3d7wse0g0a-stroke" fill="none" stroke-linecap="round" stroke-linejoin="round" stroke-miterlimit="4" stroke="#e55753" stroke-width="2" stroke-opacity="1"><g><path d="M 72.3919 44.3142L 68.9182 43.8858C 49.7101 41.5173 32.1986 33.6754 17.994 21.9746L 14.787 25.4408L 10 10L 25.7656 13.5747L 22.7563 16.8273C 35.9099 27.5671 52.0684 34.7551 69.7749 36.9385L 73.2486 37.3668L 72.3919 44.3142Z"></path></g></g></g><g id="g-root-cp_4_g-4_dg3d7wse0g0b-fill" data-item-order="-307676" transform="translate(357.84698486328125, 364.6190185546875)"></g><g id="g-root-cp_4_g-4_dg3d7wse0g0b-stroke" data-item-order="-307676" transform="translate(357.84698486328125, 364.6190185546875)"><g id="cp_4_g-4_dg3d7wse0g0b-stroke" fill="none" stroke-linecap="round" stroke-linejoin="round" stroke-miterlimit="4" stroke="#de8431" stroke-width="2" stroke-opacity="1"><g><path d="M 25.0652 47.5564L 10 41.6935L 22.6101 31.5781L 23.2828 35.9565C 40.1759 32.2685 55.3475 23.962 67.4071 12.42L 69.9356 10L 74.7757 15.0571L 72.2471 17.4771C 59.1805 29.9829 42.7041 38.9656 24.3478 42.8879L 25.0652 47.5564Z"></path></g></g></g><g id="g-root-cp_3_g-3_90wc6kse0dms-fill" data-item-order="-307672" transform="translate(430.4649658203125, 287.2039794921875)"></g><g id="g-root-cp_3_g-3_90wc6kse0dms-stroke" data-item-order="-307672" transform="translate(430.4649658203125, 287.2039794921875)"><g id="cp_3_g-3_90wc6kse0dms-stroke" fill="none" stroke-linecap="round" stroke-linejoin="round" stroke-miterlimit="4" stroke="#e0cb15" stroke-width="2" stroke-opacity="1"><g><path d="M 10.0456 77.8398L 10 61.674L 13.8428 63.8783C 19.924 51.5553 23.3419 37.6811 23.3419 22.9996C 23.3419 20.0122 23.2004 17.0589 22.9239 14.1458L 22.5932 10.6615L 29.5618 10L 29.8926 13.4844C 30.1899 16.617 30.3419 19.791 30.3419 22.9996C 30.3419 38.9362 26.5927 54.0063 19.9258 67.3675L 24.0227 69.7174L 10.0456 77.8398Z"></path></g></g></g><g id="g-root-cp_2_g-2_59bxose0efh-fill" data-item-order="-307668" transform="translate(399.04498291015625, 215.0289306640625)"></g><g id="g-root-cp_2_g-2_59bxose0efh-stroke" data-item-order="-307668" transform="translate(399.04498291015625, 215.0289306640625)"><g id="cp_2_g-2_59bxose0efh-stroke" fill="none" stroke-linecap="round" stroke-linejoin="round" stroke-miterlimit="4" stroke="#92bd39" stroke-width="2" stroke-opacity="1"><g><path d="M 54.4713 67.2231L 41.7685 57.2245L 45.8814 55.5801C 38.5633 40.1532 27.0989 27.0696 12.9265 17.7728L 10 15.8531L 13.8395 10L 16.766 11.9197C 32.1251 21.995 44.5286 36.2066 52.3929 52.9765L 56.7789 51.2229L 54.4713 67.2231Z"></path></g></g></g><g id="g-root-cp_1_g-1_59bxose0efi-fill" data-item-order="-307664" transform="translate(317.3330078125, 198.8848876953125)"></g><g id="g-root-cp_1_g-1_59bxose0efi-stroke" data-item-order="-307664" transform="translate(317.3330078125, 198.8848876953125)"><g id="cp_1_g-1_59bxose0efi-stroke" fill="none" stroke-linecap="round" stroke-linejoin="round" stroke-miterlimit="4" stroke="#3cc583" stroke-width="2" stroke-opacity="1"><g><path d="M 65.0877 21.2397L 63.8126 25.4814L 79.5468 21.7712L 68.4665 10L 67.1066 14.5238C 59.6801 12.7553 51.9338 11.8197 43.9732 11.8197C 33.2868 11.8197 22.9874 13.5056 13.3302 16.6286L 10 17.7055L 12.1539 24.3659L 15.4841 23.289C 24.4539 20.3883 34.0269 18.8197 43.9732 18.8197C 51.2409 18.8197 58.309 19.6572 65.0877 21.2397Z"></path></g></g></g><g id="g-root-tx_ajustese_1qaqdnwse0fsx-fill" data-item-order="0" transform="translate(62.1875, 219.9998779296875)"><g id="tx_ajustese_1qaqdnwse0fsx-fill-merged" stroke="none" fill="#484848" fill-opacity="1"><g><text style="font: 15px Roboto, sans-serif; white-space: pre;" transform="translate(189.8125, 19.99755859375)" font-size="15px" font-family="Roboto, sans-serif"><tspan x="-177.81" y="9" dominant-baseline="ideographic">Ajustes e aprimoramentos</tspan></text></g></g></g><g id="g-root-tx_ajustese_1qaqdnwse0fsx-stroke" data-item-order="0" transform="translate(62.1875, 219.9998779296875)"></g><g id="g-root-tx_cadastro_v98sz0se0dfn-fill" data-item-order="0" transform="translate(458, 199.9998779296875)"><g id="tx_cadastro_v98sz0se0dfn-fill-merged" stroke="none" fill="#484848" fill-opacity="1"><g><text style="font: 15px Roboto, sans-serif; white-space: pre;" transform="translate(10, 29.99755859375)" font-size="15px" font-family="Roboto, sans-serif"><tspan x="2" y="-1" dominant-baseline="ideographic">Cadastro e designação de </tspan><tspan x="2" y="19" dominant-baseline="ideographic">equipe</tspan></text></g></g></g><g id="g-root-tx_cadastro_v98sz0se0dfn-stroke" data-item-order="0" transform="translate(458, 199.9998779296875)"></g><g id="g-root-tx_monitora_1hfpui4se0dfu-fill" data-item-order="0" transform="translate(28.65625, 267.9974365234375)"><g id="tx_monitora_1hfpui4se0dfu-fill-merged" stroke="none" fill="#de58a9" fill-opacity="1"><g><text style="font: 20px Roboto, sans-serif; white-space: pre;" transform="translate(199.34375, 34)" font-size="20px" font-family="Roboto, sans-serif"><tspan x="-154.31" y="0" dominant-baseline="ideographic">Monitoramento e </tspan><tspan x="-187.34" y="24" dominant-baseline="ideographic">Prestação de Contas</tspan></text></g></g></g><g id="g-root-tx_monitora_1hfpui4se0dfu-stroke" data-item-order="0" transform="translate(28.65625, 267.9974365234375)"></g><g id="g-root-tx_evoluoem_1uqjvscse0f0o-fill" data-item-order="0" transform="translate(58.890625, 159.9998779296875)"><g id="tx_evoluoem_1uqjvscse0f0o-fill-merged" stroke="none" fill="#ba5de5" fill-opacity="1"><g><text style="font: 20px Roboto, sans-serif; white-space: pre;" transform="translate(193.109375, 34)" font-size="20px" font-family="Roboto, sans-serif"><tspan x="-181.11" y="0" dominant-baseline="ideographic">Evolução e Melhoria </tspan><tspan x="-81.92" y="24" dominant-baseline="ideographic">Contínua</tspan></text></g></g></g><g id="g-root-tx_evoluoem_1uqjvscse0f0o-stroke" data-item-order="0" transform="translate(58.890625, 159.9998779296875)"></g><g id="g-root-tx_preparao_v98sz0se0dfm-fill" data-item-order="0" transform="translate(458, 139.9998779296875)"><g id="tx_preparao_v98sz0se0dfm-fill-merged" stroke="none" fill="#92bd39" fill-opacity="1"><g><text style="font: 20px Roboto, sans-serif; white-space: pre;" transform="translate(10, 34)" font-size="20px" font-family="Roboto, sans-serif"><tspan x="2" y="0" dominant-baseline="ideographic">Preparação </tspan><tspan x="2" y="24" dominant-baseline="ideographic">Institucional</tspan></text></g></g></g><g id="g-root-tx_preparao_v98sz0se0dfm-stroke" data-item-order="0" transform="translate(458, 139.9998779296875)"></g><g id="g-root-tx_parametr_18k2u98se0f0g-fill" data-item-order="0" transform="translate(482, 267.9974365234375)"><g id="tx_parametr_18k2u98se0f0g-fill-merged" stroke="none" fill="#e0cb15" fill-opacity="1"><g><text style="font: 20px Roboto, sans-serif; white-space: pre;" transform="translate(10, 34)" font-size="20px" font-family="Roboto, sans-serif"><tspan x="2" y="0" dominant-baseline="ideographic">Parametrização </tspan><tspan x="2" y="24" dominant-baseline="ideographic">Técnica</tspan></text></g></g></g><g id="g-root-tx_parametr_18k2u98se0f0g-stroke" data-item-order="0" transform="translate(482, 267.9974365234375)"></g><g id="g-root-tx_acompanh_1hfpui4se0dfv-fill" data-item-order="0" transform="translate(78.984375, 327.9974365234375)"><g id="tx_acompanh_1hfpui4se0dfv-fill-merged" stroke="none" fill="#484848" fill-opacity="1"><g><text style="font: 15px Roboto, sans-serif; white-space: pre;" transform="translate(149.015625, 29.99755859375)" font-size="15px" font-family="Roboto, sans-serif"><tspan x="-137.02" y="-1" dominant-baseline="ideographic">Acompanhamento e </tspan><tspan x="-65.05" y="19" dominant-baseline="ideographic">relatórios</tspan></text></g></g></g><g id="g-root-tx_acompanh_1hfpui4se0dfv-stroke" data-item-order="0" transform="translate(78.984375, 327.9974365234375)"></g><g id="g-root-tx_configur_zofu0cse0ft5-fill" data-item-order="0" transform="translate(482, 327.9974365234375)"><g id="tx_configur_zofu0cse0ft5-fill-merged" stroke="none" fill="#484848" fill-opacity="1"><g><text style="font: 15px Roboto, sans-serif; white-space: pre;" transform="translate(10, 29.99755859375)" font-size="15px" font-family="Roboto, sans-serif"><tspan x="2" y="-1" dominant-baseline="ideographic">Configuração e testes em </tspan><tspan x="2" y="19" dominant-baseline="ideographic">homologação</tspan></text></g></g></g><g id="g-root-tx_configur_zofu0cse0ft5-stroke" data-item-order="0" transform="translate(482, 327.9974365234375)"></g><g id="g-root-tx_adesofor_mdlsq4se0e8c-fill" data-item-order="0" transform="translate(280.5859375, 91.9998779296875)"><g id="tx_adesofor_mdlsq4se0e8c-fill-merged" stroke="none" fill="#3cc583" fill-opacity="1"><g><text style="font: 20px Roboto, sans-serif; white-space: pre;" transform="translate(79.4140625, 22)" font-size="20px" font-family="Roboto, sans-serif"><tspan x="-67.41" y="12" dominant-baseline="ideographic">Adesão Formal</tspan></text></g></g></g><g id="g-root-tx_adesofor_mdlsq4se0e8c-stroke" data-item-order="0" transform="translate(280.5859375, 91.9998779296875)"></g><g id="g-root-tx_ciclodei_59bxose0efj-fill" data-item-order="0" transform="translate(83.6484375, 37.9998779296875)"><g id="tx_ciclodei_59bxose0efj-fill-merged" stroke="none" fill="#484848" fill-opacity="1"><g><text style="font: bold 25px Roboto, sans-serif; white-space: pre;" transform="translate(276.3515625, 25)" font-weight="bold" font-size="25px" font-family="Roboto, sans-serif"><tspan x="-264.35" y="15" dominant-baseline="ideographic">Ciclo de Implementação do TRANSFEREGOV.br</tspan></text></g></g></g><g id="g-root-tx_ciclodei_59bxose0efj-stroke" data-item-order="0" transform="translate(83.6484375, 37.9998779296875)"></g><g id="g-root-tx_operaoem_1czwcdose0e84-fill" data-item-order="0" transform="translate(167.265625, 395.9949951171875)"><g id="tx_operaoem_1czwcdose0e84-fill-merged" stroke="none" fill="#e55753" fill-opacity="1"><g><text style="font: 20px Roboto, sans-serif; white-space: pre;" transform="translate(132.734375, 34)" font-size="20px" font-family="Roboto, sans-serif"><tspan x="-120.73" y="0" dominant-baseline="ideographic">Operação em </tspan><tspan x="-87.67" y="24" dominant-baseline="ideographic">Produção</tspan></text></g></g></g><g id="g-root-tx_operaoem_1czwcdose0e84-stroke" data-item-order="0" transform="translate(167.265625, 395.9949951171875)"></g><g id="g-root-tx_treiname_1czwcdose0e86-fill" data-item-order="0" transform="translate(410, 395.9949951171875)"><g id="tx_treiname_1czwcdose0e86-fill-merged" stroke="none" fill="#de8431" fill-opacity="1"><g><text style="font: 20px Roboto, sans-serif; white-space: pre;" transform="translate(10, 34)" font-size="20px" font-family="Roboto, sans-serif"><tspan x="2" y="0" dominant-baseline="ideographic">Treinamento e </tspan><tspan x="2" y="24" dominant-baseline="ideographic">Nivelamento</tspan></text></g></g></g><g id="g-root-tx_treiname_1czwcdose0e86-stroke" data-item-order="0" transform="translate(410, 395.9949951171875)"></g><g id="g-root-tx_implemen_1czwcdose0e85-fill" data-item-order="0" transform="translate(141.609375, 455.9947509765625)"><g id="tx_implemen_1czwcdose0e85-fill-merged" stroke="none" fill="#484848" fill-opacity="1"><g><text style="font: 15px Roboto, sans-serif; white-space: pre;" transform="translate(158.390625, 29.99755859375)" font-size="15px" font-family="Roboto, sans-serif"><tspan x="-146.39" y="-1" dominant-baseline="ideographic">Implementação real e </tspan><tspan x="-72.73" y="19" dominant-baseline="ideographic">integração</tspan></text></g></g></g><g id="g-root-tx_implemen_1czwcdose0e85-stroke" data-item-order="0" transform="translate(141.609375, 455.9947509765625)"></g><g id="g-root-tx_simulaoe_1449c4sse0f0v-fill" data-item-order="0" transform="translate(410, 455.9947509765625)"><g id="tx_simulaoe_1449c4sse0f0v-fill-merged" stroke="none" fill="#484848" fill-opacity="1"><g><text style="font: 15px Roboto, sans-serif; white-space: pre;" transform="translate(10, 19.99755859375)" font-size="15px" font-family="Roboto, sans-serif"><tspan x="2" y="9" dominant-baseline="ideographic">Simulação e capacitação</tspan></text></g></g></g><g id="g-root-tx_simulaoe_1449c4sse0f0v-stroke" data-item-order="0" transform="translate(410, 455.9947509765625)"></g><g id="g-root-tx_celebrao_mdlsq4se0e8d-fill" data-item-order="0" transform="translate(262.1328125, 127.9998779296875)"><g id="tx_celebrao_mdlsq4se0e8d-fill-merged" stroke="none" fill="#484848" fill-opacity="1"><g><text style="font: 15px Roboto, sans-serif; white-space: pre;" transform="translate(97.8671875, 29.99755859375)" font-size="15px" font-family="Roboto, sans-serif"><tspan x="-85.87" y="-1" dominant-baseline="ideographic">Celebração do Acordo de </tspan><tspan x="-27.2" y="19" dominant-baseline="ideographic">Adesão</tspan></text></g></g></g><g id="g-root-tx_celebrao_mdlsq4se0e8d-stroke" data-item-order="0" transform="translate(262.1328125, 127.9998779296875)"></g></g></g></svg>